<?xml version="1.0" encoding="utf-8"?>
<!-- Generator: Adobe Illustrator 23.0.6, SVG Export Plug-In . SVG Version: 6.00 Build 0)  -->
<svg version="1.1" id="Layer_1" xmlns="http://www.w3.org/2000/svg" xmlns:xlink="http://www.w3.org/1999/xlink" x="0px" y="0px"
	 viewBox="0 0 200.5 97.9" style="enable-background:new 0 0 200.5 97.9;" xml:space="preserve">
<style type="text/css">
	.st0{fill:#0F50AA;}
	.st1{clip-path:url(#SVGID_2_);}
	.st2{clip-path:url(#SVGID_4_);}
	.st3{fill:none;stroke:#0F50AA;stroke-width:10;stroke-miterlimit:10;}
	.st4{fill:none;stroke:#0F50AA;stroke-miterlimit:10;}
</style>
<title>logo-jhm</title>
<path class="st0" d="M63.7,20.9v26.1c0,1-0.1,2-0.2,3.1c-0.1,0.8-0.3,1.6-0.6,2.4c-0.4,1.1-1,2-1.8,2.9c-0.7,0.9-1.6,1.6-2.6,2.2
	c-1,0.6-2.2,1.1-3.3,1.4c-1.2,0.4-2.5,0.5-3.8,0.5c-4,0-7.3-1.8-9.9-5.6l6.4-6.6c0.1,1,0.5,1.9,1.1,2.7c0.5,0.6,1.3,1,2.1,1
	c1.8,0,2.7-1.4,2.8-4.4v-26L63.7,20.9z"/>
<path class="st0" d="M81.5,35.4h14.1V20.9h9.8v37.7h-9.8V43.1H81.5v15.6h-9.8V20.9h9.8V35.4z"/>
<path class="st0" d="M111.6,58.6l6.4-37.7h9.7l7.6,20.1l7.5-20.1h9.7l6.4,37.7h-9.8l-3.2-21.7l-8.9,21.7H133l-8.5-21.7l-3.2,21.7
	H111.6z"/>
<path class="st0" d="M70.6,75.9v3.9h-1.5v-9.7h1.6c0.6,0,1.2,0,1.8,0.2c0.4,0.1,0.8,0.3,1.1,0.6c0.6,0.5,0.9,1.3,0.8,2.1
	c0,0.8-0.3,1.6-0.9,2.1c-0.7,0.5-1.5,0.8-2.4,0.8H70.6z M70.6,74.5h0.5c1.3,0,2-0.5,2-1.6s-0.7-1.5-2.1-1.5h-0.5V74.5z"/>
<path class="st0" d="M81.4,71.5h-3.9v2.3h3.8v1.4h-3.8v3.2h3.9v1.4H76v-9.7h5.3V71.5z"/>
<path class="st0" d="M88.8,71.6l-1.2,0.7c-0.2-0.3-0.4-0.6-0.6-0.8c-0.2-0.1-0.5-0.2-0.8-0.2c-0.4,0-0.7,0.1-1,0.4
	c-0.3,0.2-0.4,0.5-0.4,0.9c0,0.5,0.4,0.9,1.1,1.1l1,0.4c0.7,0.2,1.3,0.6,1.7,1.2c0.4,0.5,0.6,1.1,0.5,1.7c0,0.8-0.3,1.6-0.9,2.2
	c-0.6,0.6-1.4,0.9-2.2,0.9c-0.8,0-1.5-0.2-2.1-0.8c-0.6-0.6-0.9-1.3-1-2.1l1.5-0.3c0,0.4,0.1,0.8,0.4,1.2c0.6,0.7,1.6,0.8,2.3,0.3
	c0,0,0.1-0.1,0.1-0.1c0.3-0.3,0.5-0.7,0.4-1.2c0-0.2,0-0.3-0.1-0.5c-0.1-0.2-0.1-0.3-0.2-0.4c-0.1-0.1-0.3-0.3-0.4-0.4
	c-0.2-0.1-0.4-0.2-0.6-0.3L85.3,75c-1.1-0.3-1.9-1.3-2-2.5c0-0.7,0.3-1.4,0.8-1.8c0.6-0.5,1.3-0.8,2.1-0.7
	C87.3,70,88.3,70.6,88.8,71.6z"/>
<path class="st0" d="M100.6,80h-1.8L98,79.2c-0.8,0.5-1.7,0.8-2.7,0.8c-1.3,0-2.5-0.5-3.4-1.3c-1.1-0.9-1.7-2.3-1.6-3.7
	c0-1.4,0.5-2.7,1.5-3.6c2-1.9,5.2-1.9,7.2,0.1c0.9,1,1.4,2.2,1.4,3.6c0,1.3-0.5,2.5-1.4,3.3L100.6,80z M96.6,76l1.4,1.4
	c0.6-0.6,1-1.5,0.9-2.4c0-1-0.3-1.9-1-2.6c-0.7-0.7-1.6-1.1-2.6-1.1c-1,0-1.9,0.4-2.6,1.1c-0.7,0.7-1,1.7-1,2.6c0,1,0.3,1.9,1,2.6
	c0.7,0.6,1.6,1,2.5,1c0.6,0,1.2-0.1,1.7-0.4L94.7,76L96.6,76z"/>
<path class="st0" d="M103.7,70.1V76c0,0.6,0.1,1.3,0.4,1.8c0.8,0.9,2.1,1.1,3.1,0.4c0.1-0.1,0.2-0.2,0.4-0.4
	c0.3-0.6,0.5-1.2,0.4-1.8v-5.8h1.5v6.3c0,0.9-0.3,1.8-1,2.5c-0.7,0.7-1.6,1.1-2.6,1.1c-1.9,0-3.5-1.5-3.6-3.5c0-0.1,0-0.1,0-0.2
	v-6.2L103.7,70.1z"/>
<path class="st0" d="M113.2,70.1v9.7h-1.5v-9.7H113.2z"/>
<path class="st0" d="M121,71.6l-1.2,0.7c-0.1-0.3-0.4-0.6-0.6-0.8c-0.6-0.3-1.3-0.3-1.8,0.1c-0.3,0.2-0.4,0.5-0.4,0.9
	c0,0.5,0.4,0.9,1.1,1.1l1,0.4c0.7,0.2,1.3,0.6,1.7,1.2c0.4,0.5,0.6,1.1,0.6,1.7c0,0.8-0.3,1.6-0.9,2.2c-0.6,0.6-1.4,0.9-2.2,0.9
	c-0.8,0-1.5-0.2-2.1-0.8c-0.6-0.6-0.9-1.3-1-2.1l1.5-0.3c0,0.4,0.1,0.8,0.4,1.2c0.3,0.4,0.8,0.7,1.3,0.6c0.4,0,0.8-0.2,1.1-0.5
	c0.3-0.3,0.5-0.7,0.5-1.2c0-0.2,0-0.3-0.1-0.5c-0.1-0.2-0.1-0.3-0.2-0.4c-0.1-0.1-0.3-0.3-0.4-0.4c-0.2-0.1-0.4-0.2-0.6-0.3
	l-0.9-0.4c-1.1-0.3-1.9-1.3-2-2.5c0-0.7,0.3-1.4,0.8-1.8c0.6-0.5,1.3-0.8,2.1-0.7C119.5,70,120.5,70.6,121,71.6z"/>
<path class="st0" d="M128.7,77.5h-4.1l-1.1,2.3h-1.6l4.8-10.3l4.6,10.3h-1.6L128.7,77.5z M128.1,76.1l-1.4-3.3l-1.5,3.3H128.1z"/>
<g>
	<defs>
		<rect id="SVGID_1_" x="0" y="0.5" width="200" height="97.4"/>
	</defs>
	<clipPath id="SVGID_2_">
		<use xlink:href="#SVGID_1_"  style="overflow:visible;"/>
	</clipPath>
	<g class="st1">
		<g>
			<defs>
				<rect id="SVGID_3_" x="-860" y="-448.5" width="1920" height="1024"/>
			</defs>
			<clipPath id="SVGID_4_">
				<use xlink:href="#SVGID_3_"  style="overflow:visible;"/>
			</clipPath>
			<g class="st2">
				<rect y="0.5" class="st3" width="200" height="97.4"/>
			</g>
		</g>
		<rect x="-860" y="-448.5" class="st4" width="1920" height="1024"/>
	</g>
</g>
<rect y="0.5" class="st4" width="200" height="97.4"/>
</svg>
