<svg id="noun_Email_1198075" xmlns="http://www.w3.org/2000/svg" width="50" height="50" viewBox="0 0 50 50">
  <path id="Shape" d="M25,50A25.007,25.007,0,0,1,15.269,1.965,25.007,25.007,0,0,1,34.731,48.036,24.843,24.843,0,0,1,25,50ZM13.091,21.442c-.364,0-.581.291-.581.778v8.165a3.913,3.913,0,0,0,.14,1,3.864,3.864,0,0,0,3.729,2.867H33.665A3.792,3.792,0,0,0,37.43,31.03,11.146,11.146,0,0,0,37.5,29.2V22.135a.595.595,0,0,0-.786-.634,1.243,1.243,0,0,0-.319.13c-3.52,1.808-7.085,3.659-10.595,5.5a1.544,1.544,0,0,1-1.575,0c-3.421-1.789-7-3.656-10.641-5.549A1.1,1.1,0,0,0,13.091,21.442Zm3.239-5.694a3.777,3.777,0,0,0-3.5,2.337.594.594,0,0,0,.315.915l11.419,5.925a.938.938,0,0,0,.935,0L36.775,19.05a.68.68,0,0,0,.36-1.05,3.847,3.847,0,0,0-3.5-2.253c-.054,0-.11,0-.164,0h-17Z"/>
</svg>
