<svg xmlns="http://www.w3.org/2000/svg" width="50" height="50.439" viewBox="0 0 50 50.439">
  <g id="noun_Phone_64254" transform="translate(0 -0.336)">
    <path id="Shape" d="M25,50.44A25.221,25.221,0,0,1,25,0a25.221,25.221,0,0,1,0,50.44ZM17.21,29.452A5.058,5.058,0,0,0,14.444,31.1c-1.28,1.293-1.939,2.7-1.5,3.195l1.778,1.794a3.736,3.736,0,0,0,2.763.982c2.264,0,5.287-1.236,8.293-3.392a29.21,29.21,0,0,0,4-3.586,34.1,34.1,0,0,0,3.556-4.036,19.45,19.45,0,0,0,3.125-6.55c.448-2.018.174-3.571-.791-4.49l-1.778-1.794a.543.543,0,0,0-.4-.139,5.058,5.058,0,0,0-2.765,1.652c-1.265,1.277-1.952,2.74-1.5,3.2l1.532,1.546a2.843,2.843,0,0,1,.589,2.4,9.039,9.039,0,0,1-1.288,3.341,15.68,15.68,0,0,1-2.389,2.858,16.445,16.445,0,0,1-2.945,2.466,7.949,7.949,0,0,1-3.77,1.235,2.484,2.484,0,0,1-1.841-.675l.111.113-1.611-1.625A.543.543,0,0,0,17.21,29.452Z" transform="translate(0 0.336)"/>
  </g>
</svg>
